<?xml version="1.0" standalone="no"?>
<!DOCTYPE svg PUBLIC "-//W3C//DTD SVG 20010904//EN"
 "http://www.w3.org/TR/2001/REC-SVG-20010904/DTD/svg10.dtd">
<svg version="1.0" xmlns="http://www.w3.org/2000/svg"
 width="512.000000pt" height="512.000000pt" viewBox="0 0 512.000000 512.000000"
 preserveAspectRatio="xMidYMid meet">
<metadata>
Created by potrace 1.14, written by Peter Selinger 2001-2017
</metadata>
<g transform="translate(0.000000,512.000000) scale(0.100000,-0.100000)"
fill="#000000" stroke="none">
<path d="M2209 4796 c-2 -2 -31 -6 -64 -9 -371 -36 -781 -229 -1066 -502 -225
-215 -401 -499 -477 -772 l-20 -73 492 0 493 0 129 129 c71 71 142 142 158
159 l28 30 -19 54 c-58 159 8 316 167 399 65 33 196 34 259 1 132 -69 193
-171 187 -312 -5 -115 -79 -225 -184 -272 -63 -29 -199 -31 -255 -4 -21 10
-40 17 -42 15 -2 -2 -84 -84 -183 -181 l-179 -178 -354 0 c-195 -1 -438 -1
-540 -1 -216 1 -193 15 -205 -129 -9 -124 -10 -181 -2 -186 5 -4 804 -6 1605
-4 l112 0 24 53 c54 115 148 178 275 182 133 5 241 -60 302 -181 36 -71 36
-197 0 -269 -32 -64 -95 -128 -157 -157 -67 -32 -198 -32 -263 -1 -64 30 -127
94 -156 158 l-25 55 -856 0 -855 0 7 -57 c8 -68 31 -184 46 -230 l10 -32 520
-3 519 -3 174 -175 c111 -111 182 -174 193 -173 10 1 43 9 73 18 104 31 219 2
296 -74 74 -73 98 -128 98 -231 1 -74 -3 -92 -28 -142 -67 -134 -209 -200
-358 -169 -182 39 -291 243 -226 419 11 29 18 55 16 57 -1 2 -72 74 -157 159
l-155 156 -453 0 c-249 0 -453 -3 -453 -7 0 -3 24 -56 54 -117 124 -254 287
-455 528 -646 31 -25 70 -68 88 -97 58 -95 60 -112 60 -621 l0 -463 26 -24 27
-25 891 0 c685 1 895 3 907 13 28 22 36 50 38 141 2 124 33 187 115 240 47 30
80 35 242 37 167 1 200 6 283 46 107 51 200 177 216 293 4 25 7 250 7 502 l0
456 154 0 c123 1 161 4 189 18 81 38 127 140 101 224 -5 14 -106 183 -226 375
l-218 350 -6 107 c-3 59 -8 113 -11 120 -2 7 -6 29 -9 48 -27 208 -138 487
-280 705 -171 262 -438 492 -740 636 -106 50 -267 109 -337 123 -29 6 -122 23
-169 31 -39 7 -375 16 -381 11z"/>
<path d="M2115 4073 c-68 -19 -120 -99 -112 -171 9 -85 76 -142 162 -139 87 4
147 61 151 145 3 58 -18 105 -61 138 -32 24 -101 38 -140 27z"/>
<path d="M2485 3017 c-60 -34 -80 -69 -80 -137 0 -97 58 -155 155 -155 63 0
95 16 134 69 31 41 31 124 1 168 -50 73 -137 96 -210 55z"/>
<path d="M2091 1983 c-138 -67 -107 -276 44 -299 61 -9 109 11 149 59 58 72
40 179 -40 231 -36 25 -112 29 -153 9z"/>
</g>
</svg>
